Description says it all!
Resolution for those who are blind: 1280x720 progressive
Pls Comment and seed after download!

PS. Im not danish. Im Swedish.


General
Format                           : MPEG-4
Format profile                   : Base Media / Version 2
Codec ID                         : mp42
File size                        : 57.4 MiB
Duration                         : 3mn 35s
Overall bit rate                 : 2 240 Kbps
Encoded date                     : UTC 2010-01-03 12:10:58
Tagged date                      : UTC 2010-01-03 12:10:58
gsst                             : 0
gstd                             : 215666
gssd                             : B4A7DA347HH

Video
ID                               : 2
Format                           : AVC
Format/Info                      : Advanced Video Codec
Format profile                   : High@L3.1
Format settings, CABAC           : Yes
Format settings, ReFrames        : 3 frames
Codec ID                         : avc1
Codec ID/Info                    : Advanced Video Coding
Duration                         : 3mn 35s
Bit rate mode                    : Variable
Bit rate                         : 2 112 Kbps
Maximum bit rate                 : 4 983 Kbps
Width                            : 1 280 pixels
Height                           : 720 pixels
Display aspect ratio             : 16:9
Frame rate mode                  : Constant
Frame rate                       : 29.970 fps
Resolution                       : 8 bits
Colorimetry                      : 4:2:0
Scan type                        : Progressive
Bits/(Pixel*Frame)               : 0.076
Stream size                      : 54.2 MiB (94%)
Encoded date                     : UTC 2010-01-03 12:10:59
Tagged date                      : UTC 2010-01-03 12:11:07

Audio
ID                               : 1
Format                           : AAC
Format/Info                      : Advanced Audio Codec
Format version                   : Version 4
Format profile                   : LC
Format settings, SBR             : No
Codec ID                         : 40
Duration                         : 3mn 35s
Bit rate mode                    : Variable
Bit rate                         : 125 Kbps
Maximum bit rate                 : 227 Kbps
Channel(s)                       : 2 channels
Channel positions                : L R
Sampling rate                    : 44.1 KHz
Stream size                      : 3.22 MiB (6%)
Encoded date                     : UTC 2010-01-03 12:10:58
Tagged date                      : UTC 2010-01-03 12:11:07
